<?xml version="1.0" encoding="UTF-8"?><svg id="Layer_2" xmlns="http://www.w3.org/2000/svg" viewBox="0 0 685.67 370.91"><defs><style>.cls-1{fill:orange;}</style></defs><g id="Layer_1-2"><g><path d="M10.11,144.73H95.41v-25.67c0-23.65-13.54-36.99-30.32-36.99-13.54,0-25.47,7.88-31.13,20.82l-22.64-12.13c9.5-23.45,31.33-36.59,54.78-36.59,30.12,0,57.2,22.84,57.2,64.08v53.57H10.11v-27.09Z"/><path d="M139.27,163.32V57.41h27.89v107.33c0,46.29-12.53,67.51-66.3,67.51l-.2-27.89c32.34,0,38.61-9.7,38.61-41.03Z"/><path d="M172.22,10.11h27.89V171.81h-27.89V10.11Z"/><path d="M291.07,171.81h-33.55c-39.21,0-52.35-31.33-52.35-55.79,0-31.73,24.66-58.82,57-58.82s56.8,23.25,56.8,58.21v29.31h29.71v27.09h-29.71c0,35.98-15.36,59.43-77.42,59.43v-27.89c40.02,0,49.52-10.51,49.52-31.53Zm-29.51-27.09h29.51v-30.52c0-16.98-12.53-29.11-28.5-29.11-17.18,0-29.51,12.94-29.51,30.93,0,12.94,6.67,28.7,28.5,28.7Z"/><path d="M344.64,144.73h62.46v27.09h-62.46v-27.09Z"/></g><path class="cls-1" d="M614.72,146.04c5.69-1.71,11.5-3.44,17.42-5.15-.42-4.52-.87-8.06-1.29-11.94-6.14-.66-11.94-1.29-17.63-1.71-.87-4.07-1.71-7.63-2.79-11.29,5.06-3.44,9.79-6.67,14.61-10-1.94-4.07-3.65-7.63-5.27-11.08-6.14,1.5-11.5,2.79-16.77,4.07-2.37-3.65-4.19-6.67-6.35-9.79,3.44-4.73,6.77-9.13,10.42-14.07-3.02-3.23-5.92-6.02-8.71-8.92-5.06,3.44-9.58,6.44-14.19,9.34-3.23-2.37-6.14-4.94-9.34-7.21,1.94-5.6,3.44-10.87,5.06-16.44-3.86-1.94-7.21-3.65-11.08-5.6-3.65,4.73-6.77,8.92-10.21,13.23-3.86-1.29-7.63-2.58-11.71-4.07v-16.67c-4.61-.66-8.5-1.08-12.36-1.5-2.15,5.81-3.86,10.42-5.27,15.39h-12.15c-1.94-5.39-3.65-10-5.48-15.39-4.19,.66-7.84,1.5-12.36,2.15v16.44c-4.19,1.5-7.84,2.79-11.5,4.07-3.44-4.52-6.56-8.29-10-12.79-4.07,2.37-7.42,4.31-11.29,6.44,1.94,5.6,3.65,10.42,5.27,15.6-3.23,2.58-6.14,4.94-9.13,7.21-4.85-3.02-9.13-5.81-13.77-8.71-3.02,3.23-5.69,6.44-8.5,9.58,3.65,4.52,6.77,8.71,10,13.02-2.37,3.44-4.19,6.44-6.35,9.58-5.27-1.29-10.21-2.37-15.9-3.65-1.71,4.07-3.23,7.84-4.85,11.94,4.85,3.23,9.13,6.02,13.54,8.71-.87,4.07-1.71,7.63-2.58,11.29-5.69,.66-10.87,1.08-16.35,1.71-.42,4.73-.66,8.71-1.08,12.79,5.92,1.5,11.08,3.02,16.35,4.52,.21,3.86,.42,7.42,.66,11.08-5.06,2.37-10,4.52-15.06,6.98,1.08,4.31,2.15,8.06,3.23,12.15,6.14-.42,11.5-.66,16.77-1.08,1.71,3.44,3.02,6.67,4.4,10.21-4.07,3.86-8.06,7.63-12.36,11.71,2.58,3.86,4.85,6.98,7.21,10.42,5.48-2.37,10.65-4.52,15.69-6.67,2.79,3.02,5.06,5.6,7.42,8.06-2.58,5.39-5.06,10.21-7.84,15.39,3.65,2.79,6.77,5.39,10,7.84,4.4-4.07,8.71-7.84,12.9-11.71,3.23,1.71,6.14,3.44,9.58,5.39-.87,5.81-1.71,11.5-2.58,17.52,4.19,1.29,8.06,2.58,11.94,3.86,3.02-5.39,5.92-10.42,8.71-15.6,3.86,.87,7.21,1.29,10.65,1.94,1.29,6.23,2.37,11.71,3.44,17.52h12.36c1.29-6.23,2.37-11.94,3.44-17.75,3.86-.66,7.42-1.08,10.87-1.5,3.02,5.6,5.69,10.21,8.71,15.6,4.19-1.5,7.84-2.79,11.71-4.31-1.08-6.23-1.94-11.71-2.79-17.75,3.23-1.71,6.35-3.44,9.79-5.39,4.4,4.31,8.92,8.06,13.54,12.15,3.44-2.79,6.56-5.15,9.79-7.63-3.07-5.57-5.76-10.61-8.78-15.99,2.79-2.79,5.06-5.39,7.84-8.29,5.48,2.37,10.87,4.73,16.56,7.21,2.37-3.65,4.4-6.98,6.77-10.42-4.61-4.52-8.92-8.29-13.32-12.57,1.71-3.65,3.44-6.77,4.85-10.21,5.92,.42,11.5,.66,17.84,1.08,1.08-3.86,1.94-7.84,3.02-11.94-5.69-2.58-10.87-4.73-16.35-7.21,.33-3.54,.54-7.31,.96-11.17h0Zm-82.12-62.03c16.56,2.15,29.25,9.79,40.32,23-8.06,4.52-15.9,9.13-23.32,13.44-5.69-3.23-11.08-6.23-16.98-9.58v-26.86h-.02Zm-15.92,.63v26.02c-5.48,3.44-11.08,6.44-16.98,9.79-7.21-4.07-14.85-8.71-22.69-13.23,8.06-12.36,25.69-22.34,39.67-22.57Zm-48.38,35.59c8.29,4.73,15.9,9.13,23.11,13.23v20.63c-7.42,4.31-15.06,8.71-23.32,13.65-6.35-15.9-5.9-31.07,.21-47.51Zm48.38,85.36c-16.98-2.37-30.09-10.21-41.17-24.31,8.06-4.52,15.69-8.92,22.9-13.23,6.14,3.65,11.94,6.98,18.27,10.87v26.67Zm7.84-43.11c-9.79,0-17.42-8.06-17.42-18.17,.21-9.58,7.84-17.31,17.63-17.09,9.58,0,17.21,7.63,17.21,17.31,.21,9.79-7.84,17.96-17.42,17.96h0Zm8.08,43.32v-26.86c5.92-3.65,11.71-6.98,18.27-10.87,6.77,4.07,14.61,8.5,22.9,13.23-10.65,13.75-23.98,21.71-41.17,24.49h0Zm48.59-38.05c-8.06-4.73-15.9-9.34-23.32-13.65v-20.63c6.77-4.07,14.4-8.29,22.69-13.23,6.74,16.02,6.74,31.4,.63,47.51h0Z"/><g><path class="cls-1" d="M64.97,277.8v50.34h-10.1v-32.74l-13.49,32.74h-7.65l-13.56-32.74v32.74H10.08v-50.34h11.47l16.01,37.43,16.01-37.43h11.4Z"/><path class="cls-1" d="M151.59,318.55h-20.05l-3.32,9.59h-10.6l18.1-50.41h11.76l18.1,50.41h-10.67l-3.32-9.59Zm-2.74-8.08l-7.28-21.06-7.28,21.06h14.57Z"/><path class="cls-1" d="M285.45,277.8l-14.06,50.34h-11.9l-9.45-35.85-9.88,35.85-11.83,.07-13.56-50.42h10.82l8.87,39.09,10.24-39.09h11.25l9.66,38.88,8.94-38.88h10.89Z"/><path class="cls-1" d="M368.68,318.55h-20.05l-3.32,9.59h-10.6l18.1-50.41h11.76l18.1,50.41h-10.67l-3.32-9.59Zm-2.74-8.08l-7.28-21.06-7.28,21.06h14.57Z"/><path class="cls-1" d="M461.22,328.14l-11.11-19.62h-4.76v19.62h-10.1v-50.34h18.9c3.89,0,7.21,.69,9.95,2.06,2.74,1.37,4.8,3.22,6.17,5.55,1.37,2.33,2.06,4.94,2.06,7.83,0,3.32-.96,6.31-2.88,8.98-1.92,2.67-4.79,4.51-8.58,5.52l12.04,20.41h-11.68Zm-15.87-27.19h8.44c2.74,0,4.78-.66,6.13-1.98,1.35-1.32,2.02-3.16,2.02-5.52s-.67-4.1-2.02-5.37c-1.35-1.27-3.39-1.91-6.13-1.91h-8.44v14.79Z"/><path class="cls-1" d="M537.38,277.8v50.34h-10.1v-50.34h10.1Z"/><path class="cls-1" d="M624.69,280.9c4.01,2.07,7.12,5.01,9.3,8.83,2.19,3.82,3.28,8.26,3.28,13.31s-1.09,9.46-3.28,13.23c-2.19,3.78-5.29,6.7-9.3,8.76-4.01,2.07-8.67,3.1-13.96,3.1h-17.6v-50.34h17.6c5.29,0,9.94,1.04,13.96,3.1Zm-2.05,34.33c2.88-2.88,4.33-6.95,4.33-12.19s-1.44-9.34-4.33-12.3c-2.89-2.96-6.97-4.44-12.26-4.44h-7.14v33.25h7.14c5.29,0,9.38-1.44,12.26-4.33Z"/></g></g></svg>