<svg width="13" height="16" viewBox="0 0 13 16" fill="none" xmlns="http://www.w3.org/2000/svg">
<path d="M4.20607 14.0708V13.4525H5.63945V14.0708H4.20607ZM6.80583 5.48463C6.80583 5.48463 6.89249 5.39797 7.06581 5.22465C7.23912 5.05134 7.56936 4.96468 8.05652 4.96468C8.54368 4.96468 8.96058 5.13799 9.30722 5.48463C9.65385 5.83126 9.82717 6.24816 9.82717 6.73532C9.82717 7.22248 9.65385 7.63938 9.30722 7.98602C8.96058 8.33265 8.54368 8.50597 8.05652 8.50597C7.56936 8.50597 7.15246 8.33265 6.80583 7.98602C6.4592 7.63938 6.28588 7.22248 6.28588 6.73532C6.28588 6.24816 6.4592 5.83126 6.80583 5.48463ZM7.22741 7.55038C7.22741 7.55038 7.28597 7.60659 7.40307 7.71901C7.52018 7.83144 7.738 7.88765 8.05652 7.88765C8.37505 7.88765 8.64674 7.77522 8.87158 7.55038C9.09643 7.32554 9.20885 7.05385 9.20885 6.73532C9.20885 6.41679 9.09643 6.14511 8.87158 5.92026C8.64674 5.69542 8.37505 5.583 8.05652 5.583C7.738 5.583 7.46162 5.69542 7.22741 5.92026C6.9932 6.14511 6.87609 6.41679 6.87609 6.73532C6.87609 7.05385 6.9932 7.32554 7.22741 7.55038ZM12.0756 7.04448H11.4292C11.373 7.73775 11.12 8.35607 10.6703 8.89944L11.12 9.37724L10.6984 9.79882L10.2206 9.34913C9.97706 9.55524 9.70538 9.72387 9.40559 9.85503V14.8859C9.40559 14.9796 9.37748 15.0545 9.32127 15.1108C9.26506 15.167 9.19011 15.1951 9.09643 15.1951H0.720996C0.646048 15.1951 0.580469 15.167 0.524258 15.1108C0.468047 15.0545 0.439941 14.9796 0.439941 14.8859V1.11423C0.439941 1.02054 0.468047 0.945596 0.524258 0.889384C0.580469 0.833174 0.646048 0.805068 0.720996 0.805068H9.09643C9.19011 0.805068 9.26506 0.833174 9.32127 0.889384C9.37748 0.945596 9.40559 1.02054 9.40559 1.11423V3.61561C9.70538 3.74677 9.97706 3.91541 10.2206 4.12151L10.6984 3.64372L11.12 4.09341L10.6703 4.5431C11.12 5.08647 11.373 5.71416 11.4292 6.42616H12.0756V7.04448ZM8.78727 14.5767V12.9466H1.03016V14.5767H8.78727ZM8.78727 12.3283V10.0518C8.65611 10.0892 8.51558 10.108 8.36568 10.108V10.7825H7.74736V10.108C7.03536 10.0518 6.40767 9.79882 5.8643 9.34913L5.41461 9.79882L4.96492 9.37724L5.44272 8.89944C4.97429 8.35607 4.71197 7.73775 4.65576 7.04448H4.00934V6.42616H4.65576C4.71197 5.71416 4.97429 5.08647 5.44272 4.5431L4.96492 4.09341L5.41461 3.64372L5.8643 4.12151C6.40767 3.67183 7.03536 3.40951 7.74736 3.33456V2.68813H8.36568V3.33456C8.51558 3.3533 8.65611 3.3814 8.78727 3.41888V1.42339H1.03016V12.3283H8.78727ZM6.07509 8.7027C6.07509 8.7027 6.21327 8.83855 6.48964 9.11023C6.76601 9.38192 7.28831 9.51776 8.05652 9.51776C8.82474 9.51776 9.48053 9.24608 10.0239 8.7027C10.5673 8.15933 10.839 7.50354 10.839 6.73532C10.839 5.96711 10.5673 5.31131 10.0239 4.76794C9.48053 4.22457 8.82474 3.95288 8.05652 3.95288C7.28831 3.95288 6.62783 4.22457 6.07509 4.76794C5.52235 5.31131 5.24598 5.96711 5.24598 6.73532C5.24598 7.50354 5.52235 8.15933 6.07509 8.7027Z" fill="white"/>
</svg>
