<svg width="15" height="16" viewBox="0 0 15 16" fill="none" xmlns="http://www.w3.org/2000/svg">
<path d="M2.38782 2.91298C2.38782 2.91298 2.73914 2.56166 3.44177 1.85902C4.14441 1.15639 5.48879 0.805068 7.47491 0.805068C9.46103 0.805068 11.1567 1.5077 12.562 2.91298C13.9673 4.31825 14.6699 6.01395 14.6699 8.00007C14.6699 9.98619 13.9673 11.6819 12.562 13.0872C11.1567 14.4924 9.46103 15.1951 7.47491 15.1951C5.48879 15.1951 3.79309 14.4924 2.38782 13.0872C0.982544 11.6819 0.279907 9.98619 0.279907 8.00007C0.279907 6.01395 0.982544 4.31825 2.38782 2.91298ZM14.0235 8.44976H12.8149V7.83144H14.0516C13.9954 6.23879 13.4426 4.84289 12.3934 3.64372L11.4378 4.5712L11.0162 4.14962L11.9437 3.19403C10.7632 2.08855 9.37671 1.49834 7.78407 1.42339V2.80056H7.16575V1.42339C5.55437 1.49834 4.15846 2.08855 2.97803 3.19403L3.90551 4.12151L3.48393 4.5712L2.55645 3.64372C1.50718 4.84289 0.954439 6.23879 0.898228 7.83144H2.13487V8.44976H0.926333C1.02002 10.0049 1.60086 11.354 2.66887 12.4969L3.45583 11.6819L3.90551 12.1316L3.11856 12.9185C4.28025 13.9491 5.62931 14.5018 7.16575 14.5767V13.4806H7.78407V14.5767C9.3205 14.5018 10.6696 13.9491 11.8313 12.9185L11.0443 12.1316L11.4659 11.6819L12.2809 12.4969C13.349 11.354 13.9298 10.0049 14.0235 8.44976ZM7.69975 8.22491L7.25006 7.77522L9.83577 5.18952L10.2855 5.63921L7.69975 8.22491Z" fill="white"/>
</svg>
